<?xml version="1.0" standalone="no"?>
<!DOCTYPE svg PUBLIC "-//W3C//DTD SVG 20010904//EN"
 "http://www.w3.org/TR/2001/REC-SVG-20010904/DTD/svg10.dtd">
<svg version="1.0" xmlns="http://www.w3.org/2000/svg"
 width="1016.000000pt" height="1016.000000pt" viewBox="0 0 1016.000000 1016.000000"
 preserveAspectRatio="xMidYMid meet">
<metadata>
Created by potrace 1.14, written by Peter Selinger 2001-2017
</metadata>
<g transform="translate(0.000000,1016.000000) scale(0.100000,-0.100000)"
fill="#000000" stroke="none">
<path d="M4498 9715 c-2 -1 -46 -6 -98 -9 -94 -7 -109 -8 -205 -20 -27 -4 -70
-9 -95 -12 -41 -5 -318 -58 -365 -70 -11 -3 -31 -7 -45 -10 -14 -3 -41 -10
-60 -16 -19 -7 -41 -13 -49 -14 -13 -2 -28 -6 -71 -19 -45 -13 -221 -70 -240
-78 -14 -6 -27 -11 -30 -11 -8 -2 -73 -26 -105 -40 -16 -7 -55 -24 -85 -36
-138 -58 -356 -163 -374 -181 -6 -5 -18 -9 -28 -9 -9 0 -21 -6 -25 -13 -4 -7
-23 -19 -40 -26 -18 -8 -33 -17 -33 -22 0 -5 -9 -9 -20 -9 -11 0 -20 -4 -20
-8 0 -7 -66 -49 -158 -102 -15 -8 -32 -22 -39 -30 -7 -8 -13 -11 -13 -7 0 5
-6 2 -13 -5 -8 -7 -40 -31 -73 -53 -32 -22 -65 -46 -73 -53 -8 -8 -39 -32 -70
-55 -31 -23 -60 -48 -64 -54 -4 -7 -12 -13 -17 -13 -6 0 -18 -8 -28 -17 -10
-10 -36 -33 -57 -51 -136 -114 -359 -336 -475 -472 -25 -29 -50 -57 -55 -64
-6 -6 -26 -31 -45 -56 -19 -25 -37 -47 -40 -50 -4 -3 -26 -32 -51 -65 -24 -33
-47 -61 -51 -63 -5 -2 -8 -10 -8 -18 0 -8 -4 -14 -10 -14 -5 0 -10 -6 -10 -14
0 -8 -3 -16 -7 -18 -10 -4 -57 -72 -123 -177 -83 -134 -190 -326 -190 -342 0
-5 -4 -9 -10 -9 -5 0 -10 -3 -9 -7 2 -16 -14 -53 -22 -53 -5 0 -8 -4 -6 -8 3
-11 -55 -135 -68 -144 -5 -4 -6 -8 -1 -8 5 0 3 -7 -4 -15 -7 -8 -9 -15 -4 -15
4 0 3 -5 -4 -12 -7 -7 -12 -20 -12 -30 0 -10 -4 -18 -9 -18 -5 0 -11 -10 -14
-22 -3 -13 -28 -88 -57 -168 -29 -79 -54 -151 -55 -160 -2 -8 -4 -16 -5 -17
-2 -2 -3 -6 -4 -10 -12 -47 -28 -101 -33 -113 -8 -18 -7 -16 -18 -65 -4 -22
-9 -44 -11 -50 -15 -60 -37 -155 -40 -175 -8 -48 -13 -75 -15 -77 -1 -2 -3
-12 -4 -23 -1 -11 -4 -21 -5 -22 -1 -2 -3 -14 -4 -28 -2 -14 -6 -47 -11 -75
-4 -27 -9 -63 -10 -80 -2 -16 -5 -43 -8 -60 -5 -27 -14 -121 -23 -240 -4 -54
-4 -457 0 -520 6 -88 17 -219 21 -245 2 -14 6 -45 10 -70 3 -25 7 -61 10 -80
4 -34 2 -36 -63 -78 -74 -48 -149 -114 -204 -182 -39 -48 -105 -172 -114 -211
-57 -268 -39 -401 74 -526 29 -33 114 -80 185 -102 42 -14 44 -17 19 -40 -32
-29 -122 -145 -122 -158 0 -7 -4 -13 -9 -13 -11 0 -76 -144 -86 -189 -19 -87
0 -152 55 -191 24 -17 44 -22 93 -21 83 2 97 3 97 10 0 4 12 8 28 9 15 1 36 6
47 12 11 5 71 27 133 49 101 36 114 38 118 23 3 -9 10 -26 14 -37 5 -11 21
-51 35 -90 15 -38 34 -83 42 -98 17 -33 15 -36 -23 -43 -88 -15 -208 -70 -272
-125 -33 -29 -108 -129 -96 -129 4 0 0 -8 -9 -17 -8 -10 -19 -36 -22 -58 -4
-22 -10 -49 -12 -60 -10 -40 -4 -128 12 -179 10 -32 32 -69 58 -96 74 -79 121
-104 317 -170 69 -23 146 -53 172 -67 57 -31 57 -32 63 -228 4 -158 6 -169 28
-246 45 -154 159 -256 295 -264 29 -2 56 -6 59 -8 2 -3 16 -3 31 -2 135 18
143 20 221 44 l60 19 44 -57 c83 -105 210 -225 319 -300 29 -20 55 -38 58 -42
7 -7 168 -99 175 -99 3 0 23 -11 45 -25 22 -14 40 -23 40 -20 0 3 13 -1 30
-10 16 -8 32 -15 35 -15 3 0 19 -7 35 -15 17 -9 30 -12 30 -8 0 5 4 3 8 -2 7
-11 88 -38 95 -33 2 2 10 -2 18 -9 12 -9 84 -32 152 -48 10 -2 27 -7 37 -10
10 -3 29 -8 42 -10 13 -3 46 -10 73 -16 28 -7 61 -13 75 -15 14 -1 25 -3 25
-4 0 -1 18 -4 40 -6 40 -4 80 -11 80 -14 0 -1 18 -3 40 -5 22 -2 58 -6 80 -9
164 -22 865 -27 865 -6 0 3 21 6 48 7 65 3 205 18 272 29 34 5 49 7 133 19 23
3 78 12 122 20 44 8 93 16 109 19 16 3 52 10 80 16 28 5 62 12 76 14 14 3 25
5 25 6 0 1 7 3 15 5 58 11 184 40 230 52 30 8 62 16 70 18 8 2 42 11 75 20 33
9 67 18 75 20 8 1 56 15 105 30 50 14 95 28 100 29 72 18 338 107 537 179 l97
35 7 -31 c8 -37 64 -155 93 -196 94 -131 255 -227 420 -248 87 -12 224 -2 247
18 8 6 14 9 14 5 0 -10 112 43 166 78 71 47 135 116 180 194 22 36 38 67 36
69 -1 2 4 16 11 31 40 78 50 223 22 306 -32 94 -72 138 -166 187 l-50 25 73
38 c68 35 130 67 238 126 25 14 51 31 58 38 8 7 18 10 23 7 5 -4 9 -2 9 4 0 5
9 12 20 16 11 3 45 23 76 43 32 20 59 35 62 34 3 -2 8 0 11 5 3 4 15 13 26 19
52 29 70 40 75 45 5 7 40 28 123 75 26 15 47 31 47 36 0 4 6 8 13 8 8 0 25 9
38 20 38 31 42 34 71 49 15 8 36 21 46 30 10 9 29 22 42 30 71 41 443 323 517
391 18 17 35 30 37 30 10 0 254 229 335 314 31 32 67 71 81 85 30 32 124 143
162 191 54 69 128 171 128 176 0 5 41 66 51 74 10 10 156 281 158 293 0 1 6
18 14 37 8 19 26 67 38 105 13 39 26 72 29 75 3 3 6 10 7 16 1 6 5 22 7 35 22
98 28 126 31 144 2 11 6 30 9 43 8 36 19 182 19 244 -1 136 -23 274 -67 411
l-24 78 36 37 c57 59 149 209 144 235 -1 4 2 7 8 7 6 0 9 3 8 8 -1 4 4 27 12
52 20 70 22 88 22 190 0 86 -12 166 -30 194 -3 6 -7 17 -8 24 -3 15 -74 125
-88 134 -16 10 -4 17 50 28 65 14 67 14 82 23 6 5 12 5 12 2 0 -17 55 52 65
83 13 37 11 112 -4 147 -5 11 -14 33 -20 49 -27 66 -97 161 -176 237 -50 48
-205 164 -205 153 0 -3 -7 1 -15 9 -11 12 -12 22 -4 48 15 52 13 163 -6 244
-4 17 -8 35 -9 40 -1 6 -4 15 -7 20 -5 8 -17 47 -24 75 -4 20 -43 112 -60 145
-80 149 -150 234 -253 304 -53 36 -142 81 -161 81 -10 0 -21 3 -25 7 -3 4 -12
8 -19 10 -7 1 -30 7 -52 12 -82 20 -266 29 -335 17 -14 -3 -51 -7 -82 -10 -31
-4 -63 -9 -72 -12 -8 -3 -19 3 -26 15 -6 12 -7 21 -3 21 4 0 2 5 -5 12 -7 7
-12 18 -12 26 0 18 -62 146 -72 150 -5 2 -8 9 -8 16 0 7 -9 23 -20 36 -11 13
-20 29 -20 36 0 7 -3 14 -8 16 -4 2 -34 44 -67 93 -33 50 -63 95 -68 100 -4 6
-33 44 -64 85 -56 76 -123 161 -134 170 -3 3 -36 41 -74 85 -66 77 -289 303
-370 375 -38 33 -213 179 -245 203 -97 75 -157 116 -303 213 -53 35 -100 64
-104 64 -3 0 -21 11 -40 26 -18 14 -33 21 -33 17 0 -4 -4 -3 -8 2 -8 11 -21
19 -103 61 -30 15 -72 39 -94 53 -22 13 -41 24 -43 22 -1 -1 -28 10 -60 25
-146 68 -182 83 -182 76 0 -4 -4 -2 -8 3 -6 9 -157 73 -185 79 -7 2 -24 8 -39
14 -32 13 -252 83 -270 86 -7 1 -18 5 -24 8 -6 4 -26 10 -45 13 -19 3 -69 15
-112 26 -68 17 -110 26 -202 44 -82 16 -177 30 -187 27 -5 -1 -8 3 -8 8 0 7
-6 7 -19 1 -10 -6 -22 -7 -26 -3 -3 4 -19 8 -33 8 -15 1 -27 3 -27 3 0 1 -22
4 -50 7 -27 2 -75 7 -105 10 -56 6 -586 14 -592 9z"/>
</g>
</svg>
