<svg width="302" height="302" viewBox="0 0 302 302" fill="none" xmlns="http://www.w3.org/2000/svg">
<path d="M139.705 129.074C131.421 122.982 127.984 113.414 131.583 107.083C131.777 106.734 131.997 106.386 132.243 106.06C136.858 99.7764 147.688 99.889 156.432 106.312C165.172 112.743 168.518 123.045 163.897 129.327C162.676 130.988 161.024 132.197 159.091 132.966C153.705 135.113 146.138 133.799 139.705 129.074ZM194.405 54.656C147.875 20.4518 90.2295 19.8434 65.6439 53.2924C63.2714 56.5173 61.2953 59.9425 59.7074 63.524C44.7596 97.1179 63.3401 144.872 105.381 175.771C120.39 186.798 136.554 194.335 152.391 198.359C160.22 200.348 167.974 201.48 175.463 201.754C199.8 202.64 221.404 194.458 234.136 177.133C235.871 174.774 237.395 172.311 238.709 169.753C256.069 136.056 237.645 86.4361 194.405 54.656Z" fill="#F5AF41"/>
<path d="M181.494 197.846C180.319 197.846 179.135 197.825 177.945 197.781C176.94 197.745 175.934 197.693 174.92 197.625C174.874 194.705 174.89 191.791 175.145 189.31C177.591 189.574 180.016 189.749 182.416 189.837C183.605 189.88 184.787 189.901 185.964 189.901C204.893 189.901 221.944 184.281 234.124 173.01C233.529 173.935 232.903 174.848 232.246 175.743C227.756 181.851 222.105 186.778 215.588 190.524C205.607 195.408 193.958 197.846 181.494 197.846ZM147.409 192.236C133.998 187.914 120.52 181.097 107.864 171.798C75.4475 147.973 56.9792 114.129 57.0746 84.4787C57.5225 77.3427 59.1282 70.5168 61.9684 64.221C62.2027 64.2795 62.4442 64.322 62.6914 64.3468C58.9733 83.7786 64.3847 106.153 77.4098 126.813C75.4643 133.148 76.383 138.703 80.2142 142.46C82.7724 144.97 86.2362 146.23 89.9643 146.23C90.7339 146.23 91.5156 146.177 92.302 146.069C98.2097 152.411 104.903 158.394 112.332 163.854C113.479 164.697 114.634 165.52 115.795 166.323C115.982 169.923 116.765 173.124 119.08 175.505C121.54 178.033 125.425 179.262 130.941 179.262C131.209 179.262 131.482 179.259 131.755 179.253C133.266 179.221 134.676 178.768 135.884 177.945C140.578 180.165 145.305 182.078 150.029 183.68C149.215 185.944 148.249 188.909 147.409 192.236Z" fill="#CC8145"/>
<path d="M170.382 128.863C169.317 128.737 168.241 128.565 167.159 128.348C170.372 121.043 166.596 110.873 157.821 104.422C152.994 100.877 147.546 99.1082 142.62 99.1082C138.829 99.1082 135.345 100.156 132.693 102.246C131.897 100.667 131.222 99.0723 130.675 97.4763C133.915 94.5445 138.371 93.0693 143.237 93.0693C148.882 93.0693 155.085 95.0549 160.596 99.055C171.612 107.052 175.83 120.168 170.382 128.863Z" fill="#CC8145"/>
<path d="M162.517 127.149C157.483 125.558 152.401 123.007 147.633 119.503C142.469 115.707 138.213 111.181 135.079 106.375C136.931 104.611 139.586 103.738 142.577 103.738C146.501 103.738 151.005 105.241 155.041 108.207C162.351 113.581 165.535 121.853 162.517 127.149Z" fill="#BA73C9"/>
<path d="M163.898 129.328H163.902H163.898ZM142.578 103.739C139.029 103.739 135.957 104.965 134.132 107.449C132.357 109.863 132.026 113.179 133.195 116.787C134.456 120.669 137.261 124.361 141.096 127.179C148.78 132.829 158.16 133.167 162.004 127.936C165.85 122.706 162.725 113.856 155.041 108.206C151.006 105.241 146.5 103.739 142.578 103.739ZM153.515 136.279C148.588 136.279 143.14 134.511 138.314 130.964C133.693 127.566 130.289 123.047 128.728 118.236C127.079 113.151 127.653 108.332 130.347 104.669C135.725 97.3509 148.05 97.2422 157.823 104.423C167.593 111.604 171.169 123.4 165.789 130.718C163.066 134.422 158.566 136.279 153.515 136.279ZM120.759 30.9475C97.676 30.9475 78.8045 39.3547 67.5389 54.6818C43.7621 87.0311 61.3619 140.502 106.772 173.879C152.182 207.255 208.47 208.091 232.246 175.743C256.022 143.393 238.422 89.9219 193.013 56.5448C170.903 40.2929 145.602 31.2049 121.771 30.9532C121.433 30.9494 121.095 30.9475 120.759 30.9475ZM179.029 204.172C178.674 204.172 178.321 204.17 177.965 204.166C153.157 203.904 126.886 194.492 103.991 177.663C81.0944 160.834 64.2687 138.57 56.6141 114.974C48.869 91.1022 51.4054 68.7008 63.7542 51.8997C76.1032 35.0987 96.7117 25.9745 121.821 26.2567C146.628 26.5199 172.898 35.932 195.793 52.7597C218.691 69.5875 235.514 91.8516 243.17 115.451C250.916 139.322 248.38 161.722 236.031 178.523C223.856 195.087 203.642 204.171 179.029 204.172Z" fill="#6D184E"/>
<path d="M195.937 121.921C186.449 134.828 164.2 134.593 146.243 121.394C131.159 110.307 123.905 93.6025 127.591 80.8889C127.85 80.2021 132.776 67.5598 142.141 78.2227C151.766 89.182 153.586 91.0864 165.326 87.5947C177.066 84.1048 169.925 105.622 181.779 107.47C193.633 109.318 199.836 111.02 195.937 121.921ZM195.429 52.2813C172.996 35.7946 148.049 26.9254 125.284 25.7077L125.295 25.6983C94.3085 21.6062 75.8947 32.5129 67.0166 43.4216C59.0561 53.1988 58.7612 62.9798 63.9419 61.9498C65.7692 61.5858 67.3363 61.507 68.688 61.6214C68.5508 62.2669 68.4129 62.9104 68.2927 63.5802C62.7959 94.2779 95.8645 100.102 83.331 119.795C70.7973 139.487 86.7619 149.284 99.526 140.808L99.6153 140.749C105.301 137.036 113.056 139.288 115.963 145.426C117.401 148.464 118.541 152.119 118.411 155.938C118.016 167.598 115.851 177.249 131.705 176.905C136.381 176.805 138.448 171.202 137.236 166.653C134.497 156.362 147.92 153.914 153.132 160.787C154.374 162.424 155.275 164.148 155.62 165.786C156.162 170.713 155.417 176.38 153.28 181.726C148.061 194.787 140.905 223.103 161.994 225.399C172.728 226.566 172.949 214.671 172.685 202.776C172.432 191.3 171.724 179.825 179.573 180.079C195.553 180.596 197.234 188.544 212.105 177.649C226.975 166.754 234.801 159.463 241.131 162.779C247.462 166.096 247.531 141.011 247.531 141.011C247.274 110.798 228.374 76.4965 195.429 52.2813Z" fill="#FF33BB"/>
<path d="M105.01 87.8318C104.206 87.8318 103.424 87.5812 102.758 87.1052C101.915 86.5015 101.358 85.6047 101.188 84.5817L99.6092 75.0396C99.2585 72.9275 100.692 70.9242 102.805 70.5743C103.019 70.5396 103.233 70.5222 103.446 70.5222C104.251 70.5222 105.032 70.7713 105.698 71.2489C106.543 71.8525 107.1 72.7478 107.268 73.7707L108.849 83.3145C109.018 84.3374 108.78 85.3651 108.176 86.2083C107.571 87.0516 106.676 87.6095 105.653 87.7782C105.438 87.8144 105.222 87.8318 105.01 87.8318Z" fill="#D32B9A"/>
<path d="M146.97 66.4153C145.964 66.4153 145.016 66.035 144.288 65.337L137.299 58.6496C135.753 57.1691 135.699 54.7067 137.179 53.1603C137.898 52.4116 138.863 51.9857 139.899 51.9637C139.932 51.9621 139.966 51.9621 139.998 51.9621C141.002 51.9621 141.944 52.3457 142.669 53.0403L149.657 59.7278C151.203 61.2083 151.257 63.6707 149.777 65.217C149.059 65.9657 148.094 66.3916 147.056 66.4136C147.027 66.4153 146.998 66.4153 146.97 66.4153Z" fill="#D32B9A"/>
<path d="M193.849 100.601C192.4 100.316 190.823 100.057 189.131 99.7929C184.981 99.1461 183.158 96.0846 182.038 92.5304C182.194 91.2674 182.966 90.1035 184.193 89.5056C184.738 89.2417 185.316 89.1166 185.885 89.1166C187.325 89.1166 188.712 89.919 189.383 91.2979L193.614 99.9973C193.71 100.194 193.788 100.397 193.849 100.601Z" fill="#D32B9A"/>
<path d="M124.191 138.522C124.072 138.522 123.952 138.517 123.833 138.507C123.772 138.501 123.712 138.493 123.652 138.486C123.541 138.236 123.43 137.991 123.315 137.749C122.592 136.221 121.568 134.934 120.351 133.92L121.191 124.656C121.373 122.64 123.071 121.125 125.059 121.125C125.174 121.125 125.291 121.13 125.407 121.14C126.44 121.234 127.374 121.724 128.039 122.52C128.703 123.317 129.017 124.325 128.923 125.358L128.05 134.99C127.956 136.023 127.465 136.958 126.669 137.623C125.965 138.209 125.096 138.522 124.191 138.522Z" fill="#D32B9A"/>
<path d="M97.3464 119.554C96.0541 119.554 94.7903 118.911 94.0534 117.739C92.9142 115.927 93.4615 113.525 95.2752 112.386L103.464 107.238C104.104 106.835 104.818 106.644 105.524 106.644C106.816 106.644 108.081 107.287 108.818 108.459C109.957 110.271 109.409 112.673 107.596 113.812L99.4067 118.96C98.7673 119.362 98.0521 119.554 97.3464 119.554Z" fill="#D32B9A"/>
<path d="M170.41 171.919C169.119 171.919 167.854 171.277 167.117 170.104C165.979 168.292 166.526 165.891 168.339 164.751L176.528 159.603C177.168 159.201 177.882 159.009 178.588 159.009C179.88 159.009 181.144 159.652 181.881 160.825C183.02 162.637 182.473 165.039 180.661 166.178L172.47 171.325C171.831 171.728 171.116 171.919 170.41 171.919Z" fill="#D32B9A"/>
<path d="M198.356 149.212C197.829 149.212 197.306 149.104 196.809 148.887C195.857 148.474 195.124 147.714 194.744 146.75L191.199 137.75C190.819 136.786 190.838 135.729 191.251 134.779C191.666 133.828 192.425 133.095 193.39 132.714C193.851 132.533 194.332 132.443 194.813 132.443C195.338 132.443 195.864 132.55 196.361 132.767C197.31 133.181 198.044 133.939 198.424 134.904L201.969 143.906C202.349 144.869 202.332 145.925 201.917 146.874C201.503 147.827 200.745 148.559 199.779 148.939C199.318 149.121 198.836 149.212 198.356 149.212Z" fill="#D32B9A"/>
<path d="M179.729 74.2732C179.367 74.2732 179.003 74.2214 178.646 74.1179L169.353 71.4349C167.296 70.8397 166.107 68.6839 166.7 66.6267C167.192 64.9286 168.748 63.8223 170.435 63.8223C170.789 63.8223 171.15 63.8709 171.507 63.9744L180.801 66.6591C182.857 67.2542 184.047 69.41 183.454 71.4656C183.166 72.4635 182.508 73.2867 181.599 73.788C181.017 74.1098 180.376 74.2732 179.729 74.2732Z" fill="#D32B9A"/>
<path d="M214.703 121.624C214.347 121.624 213.985 121.575 213.628 121.471L204.335 118.787C203.338 118.498 202.514 117.839 202.011 116.932C201.877 116.685 201.769 116.43 201.69 116.168C202.257 115.563 202.791 114.921 203.29 114.243C203.658 113.215 203.936 112.267 204.128 111.395C204.536 111.251 204.971 111.174 205.415 111.174C205.769 111.174 206.132 111.222 206.49 111.326L215.781 114.011C217.839 114.606 219.028 116.761 218.434 118.819C217.943 120.517 216.388 121.624 214.703 121.624Z" fill="#D32B9A"/>
<path d="M223.075 162.98C223.024 162.98 222.972 162.979 222.919 162.977C221.884 162.936 220.926 162.494 220.222 161.733C219.517 160.972 219.151 159.982 219.192 158.946C219.233 157.909 219.675 156.951 220.435 156.247L227.537 149.679C228.263 149.01 229.192 148.648 230.176 148.648C230.225 148.648 230.275 148.648 230.325 148.651C231.361 148.69 232.319 149.132 233.024 149.894C234.477 151.465 234.382 153.927 232.809 155.38L225.707 161.948C224.985 162.616 224.055 162.98 223.075 162.98Z" fill="#D32B9A"/>
<path d="M204.758 97.635C203.926 97.635 203.118 97.3686 202.439 96.8609C201.608 96.2376 201.072 95.3294 200.925 94.3039C200.621 92.1843 202.097 90.2138 204.217 89.9105L213.791 88.5382C213.979 88.5114 214.165 88.498 214.349 88.498C215.184 88.498 215.992 88.7661 216.67 89.2755C217.5 89.8971 218.039 90.8053 218.185 91.8307C218.332 92.8579 218.071 93.88 217.449 94.7094C216.828 95.5388 215.919 96.0784 214.894 96.2242L205.318 97.5965C205.132 97.6233 204.944 97.635 204.758 97.635Z" fill="#D32B9A"/>
<path d="M141.818 150.394C141.796 150.394 141.774 150.394 141.751 150.394C140.714 150.376 139.747 149.956 139.025 149.21C137.537 147.672 137.578 145.209 139.118 143.721L146.07 136.996C146.823 136.269 147.797 135.908 148.769 135.908C149.785 135.908 150.801 136.302 151.559 137.089C152.281 137.833 152.669 138.816 152.651 139.852C152.635 140.889 152.215 141.858 151.469 142.578L144.516 149.302C143.786 150.007 142.829 150.394 141.818 150.394Z" fill="#D32B9A"/>
<path d="M114.902 60.8481C113.676 60.8481 112.47 60.2697 111.716 59.1926L106.168 51.2698C104.939 49.5173 105.367 47.0911 107.121 45.8632C107.796 45.3887 108.573 45.1619 109.342 45.1619C110.567 45.1619 111.774 45.7386 112.527 46.8157L118.076 54.7385C119.305 56.4928 118.875 58.919 117.122 60.1468C116.446 60.6196 115.67 60.8481 114.902 60.8481Z" fill="#D32B9A"/>
<path d="M99.4508 38.1218C99.3178 39.4541 98.7041 40.6745 97.8847 41.7337C91.2403 50.3229 99.5115 69.8122 88.6065 70.7578C77.6082 71.7089 78.3689 46.9437 85.6412 38.897C94.8242 28.7318 100.063 31.9956 99.4508 38.1218Z" fill="#FF5CC9"/>
<path d="M222.371 121.159C222.371 121.159 223.022 135.208 208.227 142.925C193.431 150.64 221.799 155.474 230.095 140.322C238.388 125.17 224.136 112.565 222.371 121.159Z" fill="#FF5CC9"/>
<path d="M245.055 145.587C242.662 115.122 223.058 81.6007 190.297 57.5167C187.343 55.3467 184.351 53.3056 181.319 51.3824C180.171 50.6548 179.02 49.9492 177.865 49.2566C175.417 51.1908 171.976 52.239 168.24 52.239C165.641 52.239 162.898 51.7306 160.247 50.664C153.029 47.7516 148.921 41.6633 150.091 36.2659C149.375 36.0209 148.66 35.7796 147.945 35.5475C137.218 32.0437 126.53 30.0155 116.257 29.4684L116.271 29.4611C111.46 28.8274 106.939 28.5345 102.693 28.5345C100.75 28.5345 98.8637 28.5953 97.0354 28.7132C101.691 27.7258 106.829 27.1713 112.46 27.1713C116.322 27.1713 120.42 27.4329 124.748 27.9929C124.881 28.026 125.018 28.0445 125.158 28.0518C148.347 29.2934 172.808 38.5685 194.037 54.1732C225.324 77.1685 244.922 110.45 245.184 141.004C245.18 142.54 245.134 144.081 245.055 145.587Z" fill="#FF99DD"/>
<path d="M195.938 121.92H195.941H195.938ZM129.82 81.6338C126.381 93.6999 133.693 109.256 147.632 119.502C164.387 131.816 185.018 132.366 193.841 120.802C194.912 117.695 195.04 115.525 194.236 114.172C192.793 111.742 187.576 110.75 181.418 109.79C174.043 108.642 172.456 101.564 171.297 96.3956C170.654 93.527 169.987 90.5589 168.691 89.7981C168.126 89.4675 167.218 89.4825 165.995 89.8469C152.695 93.8013 150.086 90.8275 140.377 79.7722C138.829 78.0101 136.554 75.9831 134.524 76.3588C132.173 76.789 130.364 80.2362 129.82 81.6338ZM174.633 133.753C165.035 133.753 154.344 130.264 144.852 123.287C129.321 111.873 121.296 94.1695 125.335 80.2362C125.352 80.1779 125.371 80.1216 125.393 80.0634C125.852 78.8423 128.407 72.7031 133.678 71.7394C137.05 71.1232 140.49 72.7839 143.905 76.6744C153.262 87.3278 154.239 88.4399 164.658 85.344C167.177 84.5945 169.333 84.7316 171.067 85.7479C174.124 87.5419 175.016 91.5189 175.88 95.368C177.154 101.047 178.212 104.537 182.14 105.15C190.011 106.376 195.774 107.569 198.273 111.772C199.886 114.488 199.847 117.963 198.149 122.711C198.072 122.925 197.965 123.128 197.829 123.312C192.714 130.272 184.217 133.753 174.633 133.753ZM144.999 154.566C148.622 154.566 152.479 156.039 155.004 159.368C156.531 161.384 157.512 163.379 157.917 165.3C157.934 165.376 157.946 165.452 157.953 165.529C158.556 171.006 157.671 177.067 155.462 182.598C151.059 193.615 147.638 209.349 152.498 217.435C154.474 220.723 157.664 222.564 162.247 223.064C164.423 223.299 166.042 222.9 167.196 221.839C170.722 218.6 170.496 209.278 170.295 201.052C170.081 192.178 169.878 183.795 173.825 179.883C175.339 178.379 177.299 177.654 179.649 177.732C185.271 177.914 189.256 178.984 192.457 179.844C198.44 181.451 201.735 182.336 210.716 175.755C212.939 174.128 214.971 172.605 216.934 171.131C228.493 162.467 235.485 157.226 242.158 160.666C243.734 159.145 245.156 150.013 245.184 141.004C244.921 110.451 225.324 77.1685 194.037 54.173C172.809 38.5696 148.346 29.2932 125.158 28.0515C125.018 28.044 124.881 28.0252 124.748 27.9933C90.3877 23.5392 70.8181 37.9948 64.495 51.7571C62.2359 56.6752 62.7979 59.3634 63.1575 59.6847C63.1524 59.6753 63.2696 59.6884 63.4842 59.6452C65.4037 59.2639 67.221 59.1418 68.8845 59.2808C69.5559 59.3371 70.1715 59.679 70.5737 60.2201C70.9749 60.7611 71.1249 61.4487 70.9849 62.108L70.971 62.1756C70.8438 62.773 70.7157 63.3723 70.6045 63.996C68.0036 78.5173 74.6652 87.1042 80.5423 94.6805C86.6318 102.529 92.3838 109.944 85.312 121.056C80.4469 128.698 79.7706 135.447 83.5025 139.109C86.8573 142.398 93.049 142.29 98.2271 138.853L98.3342 138.782C101.588 136.657 105.626 136.05 109.413 137.117C113.236 138.196 116.397 140.859 118.085 144.421C119.984 148.432 120.883 152.334 120.759 156.017C120.72 157.153 120.665 158.27 120.611 159.362C120.335 164.969 120.096 169.811 122.447 172.229C124.068 173.895 127.081 174.655 131.654 174.558C132.636 174.537 133.423 174.114 134.06 173.267C135.168 171.793 135.532 169.378 134.969 167.258C133.629 162.231 135.45 157.812 139.72 155.727C141.264 154.971 143.099 154.566 144.999 154.566ZM163.399 227.826C162.862 227.826 162.309 227.795 161.74 227.732C155.68 227.073 151.217 224.422 148.472 219.854C141.251 207.836 148.658 186.965 151.1 180.855C153.012 176.069 153.792 170.859 153.3 166.164C153.024 164.969 152.319 163.602 151.262 162.206C148.981 159.198 144.518 158.608 141.781 159.947C139.522 161.049 138.737 163.159 139.506 166.049C140.437 169.542 139.772 173.483 137.815 176.089C136.32 178.077 134.167 179.201 131.755 179.253C125.805 179.378 121.66 178.155 119.081 175.504C115.304 171.621 115.603 165.553 115.921 159.13C115.973 158.063 116.027 156.969 116.065 155.858C116.164 152.93 115.415 149.758 113.84 146.431C112.734 144.095 110.656 142.348 108.138 141.638C105.658 140.939 103.02 141.33 100.899 142.716L100.836 142.757C93.6975 147.497 85.2216 147.372 80.2145 142.46C74.7815 137.132 75.2055 128.187 81.3497 118.534C86.6467 110.211 82.7419 105.178 76.8312 97.5584C70.7813 89.7605 63.2775 80.0878 65.8367 64.0223C65.371 64.0786 64.8914 64.1538 64.3998 64.2533C62.2894 64.6723 60.4234 63.9753 59.2794 62.341C57.0281 59.1249 58.1135 52.8617 62.0452 46.3863C64.6938 42.0262 70.9789 33.875 83.326 28.2694C95.1962 22.8817 109.42 21.2323 125.602 23.3701C125.617 23.372 125.633 23.3739 125.647 23.3757C149.667 24.7152 174.933 34.3034 196.819 50.3895C229.275 74.2435 249.605 108.959 249.881 140.991C249.879 141.218 249.86 146.003 249.308 151.19C248.229 161.304 246.135 163.782 244.431 164.81C243.086 165.621 241.529 165.638 240.043 164.859C235.976 162.727 229.868 167.306 219.752 174.889C217.778 176.369 215.736 177.901 213.491 179.543C202.695 187.456 197.89 186.166 191.239 184.38C188.117 183.541 184.576 182.59 179.496 182.426C178.135 182.383 177.494 182.857 177.131 183.217C174.623 185.705 174.819 193.799 174.992 200.939C175.225 210.613 175.467 220.617 170.374 225.297C168.546 226.978 166.204 227.826 163.399 227.826Z" fill="#6D184E"/>
<path d="M185.814 108.149C185.744 108.137 185.674 108.124 185.603 108.111C185.674 108.124 185.744 108.137 185.814 108.149Z" fill="#6D184E"/>
<path d="M184.855 107.977C184.747 107.956 184.633 107.937 184.523 107.92C184.633 107.937 184.747 107.956 184.855 107.977Z" fill="#6D184E"/>
<path d="M182.84 107.639C182.49 107.583 182.137 107.526 181.777 107.471C182.137 107.526 182.49 107.583 182.84 107.639Z" fill="#6D184E"/>
<path d="M140.023 76.1362C139.917 76.0467 139.812 75.9603 139.707 75.8785C139.812 75.9603 139.917 76.0467 140.023 76.1362Z" fill="#6D184E"/>
<path d="M142.104 78.1819C141.856 77.8996 141.61 77.6388 141.368 77.3888C141.61 77.6388 141.856 77.8996 142.104 78.1819Z" fill="#6D184E"/>
<path d="M197.066 117.111C197.066 117.087 197.069 117.063 197.07 117.039C197.069 117.063 197.066 117.087 197.066 117.111Z" fill="#6D184E"/>
<path d="M197.072 115.75C197.071 115.733 197.067 115.716 197.067 115.699C197.067 115.716 197.071 115.733 197.072 115.75Z" fill="#6D184E"/>
<path d="M192.765 110.106C192.728 110.089 192.693 110.073 192.657 110.056C192.693 110.073 192.728 110.089 192.765 110.106Z" fill="#6D184E"/>
<path d="M190.068 109.125C189.987 109.103 189.907 109.079 189.826 109.056C189.907 109.079 189.987 109.103 190.068 109.125Z" fill="#6D184E"/>
<path d="M191.502 109.59C191.441 109.569 191.381 109.547 191.319 109.525C191.381 109.547 191.441 109.569 191.502 109.59Z" fill="#6D184E"/>
<path d="M186.74 108.33C186.612 108.304 186.482 108.278 186.353 108.253C186.482 108.278 186.612 108.304 186.74 108.33Z" fill="#6D184E"/>
<path d="M139.257 75.5378C139.145 75.459 139.036 75.3832 138.927 75.3105C139.036 75.3832 139.145 75.459 139.257 75.5378Z" fill="#6D184E"/>
<path d="M196.862 118.618C196.865 118.598 196.87 118.576 196.874 118.555C196.87 118.576 196.865 118.598 196.862 118.618Z" fill="#6D184E"/>
<path d="M141.207 77.2268C140.964 76.9805 140.722 76.7481 140.484 76.5341C140.722 76.7481 140.964 76.9805 141.207 77.2268Z" fill="#6D184E"/>
<path d="M136.297 74.1206C136.23 74.1051 136.165 74.0911 136.098 74.0786C136.165 74.0911 136.23 74.1051 136.297 74.1206Z" fill="#6D184E"/>
<path d="M134.745 73.9763C134.788 73.9748 134.83 73.9732 134.874 73.9716C134.83 73.9732 134.788 73.9748 134.745 73.9763ZM135.185 73.9732C135.124 73.9717 135.065 73.9701 135.006 73.9701C135.007 73.9701 135.009 73.9701 135.011 73.9701C135.037 73.9701 135.063 73.9716 135.09 73.9716C135.123 73.9716 135.152 73.9717 135.185 73.9732ZM135.001 73.9701C135.003 73.9701 135.004 73.9701 135.006 73.9701C135.004 73.9701 135.003 73.9701 135.001 73.9701Z" fill="#6D184E"/>
<path d="M196.689 119.425C196.692 119.409 196.697 119.394 196.7 119.378C196.697 119.394 196.692 119.409 196.689 119.425Z" fill="#6D184E"/>
<path d="M138.425 74.9949C138.319 74.9313 138.215 74.8724 138.112 74.8166C138.215 74.8724 138.319 74.9313 138.425 74.9949Z" fill="#6D184E"/>
<path d="M137.716 74.6223C137.633 74.5835 137.549 74.5463 137.465 74.509C137.549 74.5463 137.633 74.5835 137.716 74.6223Z" fill="#6D184E"/>
<path d="M136.857 74.2742C136.812 74.2602 136.767 74.2462 136.722 74.2322C136.767 74.2462 136.812 74.2602 136.857 74.2742Z" fill="#6D184E"/>
<path d="M196.988 117.847C196.991 117.822 196.994 117.799 196.998 117.776C196.994 117.799 196.991 117.822 196.988 117.847Z" fill="#6D184E"/>
<path d="M130.887 174.566C126.743 174.566 123.976 173.801 122.446 172.23C120.096 169.811 120.335 164.969 120.611 159.362C120.665 158.271 120.721 157.154 120.759 156.017C120.882 152.334 119.984 148.433 118.084 144.422C116.397 140.86 113.236 138.196 109.413 137.118C108.186 136.773 106.935 136.603 105.691 136.603C103.094 136.603 100.534 137.344 98.334 138.781L98.2267 138.853C95.5673 140.618 92.6416 141.505 89.9692 141.505C87.438 141.505 85.134 140.709 83.5024 139.108C79.7704 135.448 80.4466 128.698 85.3117 121.056C92.3835 109.945 86.6315 102.53 80.5421 94.6806C74.665 87.1042 68.0035 78.5173 70.6042 63.9964C70.7155 63.3732 70.8436 62.7742 70.9707 62.1753L70.9846 62.1093C71.1247 61.4495 70.9747 60.7621 70.5735 60.2221C70.1714 59.6805 69.5556 59.3367 68.8842 59.2811C68.4414 59.2447 67.9886 59.2256 67.5247 59.2256C66.2467 59.2256 64.8931 59.3662 63.4839 59.6457C63.2695 59.6891 63.1523 59.6752 63.1571 59.6857C62.7977 59.3645 62.2356 56.6752 64.4948 51.7585C65.62 49.3089 67.1662 46.8349 69.1405 44.4512C66.917 50.0884 67.5882 54.3471 70.5756 54.3454C70.802 54.3454 71.0412 54.3228 71.2945 54.2724C72.6162 54.0086 73.802 53.8957 74.8676 53.8957C75.2758 53.8957 75.6669 53.9113 76.0403 53.9426C75.9034 54.5884 75.7664 55.2325 75.6462 55.9044C70.1485 86.6007 103.217 92.4254 90.6833 112.118C81.2292 126.971 87.9881 136.195 97.3578 136.193C100.411 136.193 103.742 135.214 106.879 133.13C106.908 133.111 106.938 133.09 106.968 133.073C108.846 131.846 110.949 131.269 113.029 131.269C115.679 131.269 118.292 132.205 120.351 133.92L120.316 134.288C120.224 135.321 120.537 136.33 121.201 137.127C121.826 137.875 122.691 138.354 123.653 138.486C124.927 141.37 125.884 144.747 125.764 148.259C125.405 158.879 123.578 167.83 135.228 169.085C135.269 170.659 134.856 172.208 134.059 173.267C133.422 174.114 132.636 174.537 131.653 174.558C131.394 174.563 131.139 174.566 130.887 174.566Z" fill="#D32B9A"/>
<path d="M123.653 138.485C122.691 138.355 121.826 137.875 121.202 137.126C120.538 136.329 120.223 135.321 120.317 134.288L120.35 133.919C121.568 134.934 122.592 136.22 123.315 137.748C123.43 137.99 123.543 138.236 123.653 138.485Z" fill="#B42583"/>
<path d="M130.9 176.914C115.926 176.914 118.023 167.397 118.412 155.938C118.541 152.119 117.4 148.463 115.963 145.426C114.015 141.315 109.895 138.947 105.676 138.947C103.597 138.947 101.492 139.522 99.6155 140.749C99.5856 140.769 99.5558 140.788 99.5259 140.808C96.3888 142.891 93.0592 143.87 90.0054 143.87C80.6357 143.87 73.8777 134.646 83.3309 119.795C95.8646 100.101 62.7949 94.2779 68.2927 63.5802C68.4128 62.9108 68.5508 62.2664 68.6879 61.6201C68.3135 61.5899 67.9233 61.572 67.515 61.572C66.4485 61.572 65.2628 61.686 63.942 61.9477C63.6886 61.9993 63.4485 62.0242 63.222 62.0242C57.8167 62.0242 59.9935 48.0667 73.2074 37.2496C71.3692 39.7473 70.0256 42.2077 69.1408 44.4509C67.1665 46.8347 65.6203 49.3076 64.4951 51.7573C62.2359 56.6744 62.798 59.3627 63.1574 59.6849C63.1524 59.676 63.2697 59.6885 63.4841 59.6458C64.8934 59.3662 66.2469 59.2238 67.525 59.2238C67.9888 59.2238 68.4417 59.2434 68.8845 59.2808C69.5558 59.336 70.1716 59.6796 70.5738 60.2208C70.9749 60.762 71.125 61.4492 70.9849 62.1079L70.971 62.1756C70.8438 62.7737 70.7159 63.3719 70.6046 63.995C68.0037 78.5169 74.6653 87.1051 80.5422 94.6803C86.6319 102.53 92.3837 109.945 85.312 121.055C80.447 128.698 79.7706 135.447 83.5027 139.108C85.1343 140.708 87.4382 141.504 89.9696 141.504C92.642 141.504 95.5676 140.617 98.227 138.853L98.3344 138.782C100.534 137.343 103.094 136.603 105.691 136.603C106.935 136.603 108.187 136.772 109.413 137.117C113.237 138.196 116.397 140.859 118.085 144.42C119.984 148.431 120.883 152.334 120.759 156.017C120.72 157.153 120.665 158.27 120.611 159.362C120.335 164.969 120.096 169.811 122.447 172.229C123.976 173.8 126.743 174.566 130.889 174.566C131.139 174.566 131.393 174.563 131.655 174.558C132.636 174.537 133.423 174.114 134.06 173.267C134.858 172.207 135.269 170.659 135.228 169.085C135.956 169.163 136.738 169.212 137.574 169.229C137.597 173.077 135.522 176.823 131.705 176.905C131.431 176.911 131.163 176.914 130.9 176.914Z" fill="#6D184E"/>
<path d="M199.295 118.362C199.689 115.727 199.348 113.581 198.272 111.773C195.773 107.57 190.01 106.377 182.14 105.149C178.21 104.537 177.153 101.046 175.879 95.3682C175.016 91.5198 174.123 87.5417 171.068 85.7473C170.068 85.1625 168.927 84.8677 167.66 84.8677C166.728 84.8677 165.725 85.0263 164.656 85.3452C161.45 86.2968 159.138 86.8512 157.201 86.8512C152.843 86.8512 150.381 84.0474 143.905 76.6743C141.157 73.5437 138.394 71.8566 135.66 71.6387C136.734 69.5848 138.983 66.2876 142.385 66.2876C144.366 66.2876 146.739 67.4075 149.495 70.5461C156.287 78.2813 159.191 81.5048 164.441 81.5048C166.63 81.5048 169.225 80.944 172.678 79.9171C173.558 79.6559 174.33 79.5358 175.012 79.5358C180.26 79.5358 180.202 86.699 182.038 92.5308C181.95 93.2486 182.062 93.9984 182.402 94.6953L186.633 103.393C187.086 104.326 187.876 105.026 188.857 105.366C189.272 105.508 189.699 105.58 190.126 105.58C190.707 105.58 191.284 105.447 191.822 105.186C192.755 104.733 193.455 103.943 193.793 102.962C194.06 102.189 194.078 101.371 193.849 100.601C201.594 102.125 205.679 104.339 204.128 111.395C202.984 111.797 202.044 112.728 201.683 113.979C201.472 114.705 201.478 115.459 201.69 116.167C200.946 116.962 200.147 117.693 199.295 118.362Z" fill="#D32B9A"/>
<path d="M190.126 105.58C189.699 105.58 189.271 105.509 188.856 105.366C187.876 105.027 187.086 104.328 186.633 103.395L182.4 94.6966C182.062 93.9988 181.95 93.2492 182.039 92.5316C183.158 96.0844 184.979 99.1457 189.131 99.793C190.824 100.057 192.399 100.317 193.848 100.602C194.077 101.372 194.059 102.19 193.792 102.964C193.454 103.944 192.755 104.734 191.821 105.187C191.283 105.448 190.706 105.58 190.126 105.58Z" fill="#B42583"/>
<path d="M201.691 116.167C201.479 115.46 201.472 114.704 201.683 113.978C202.044 112.727 202.984 111.797 204.128 111.394C203.936 112.268 203.658 113.213 203.289 114.242C202.792 114.92 202.258 115.562 201.691 116.167Z" fill="#B42583"/>
<path d="M196.47 120.254V120.252C196.552 119.97 196.624 119.693 196.688 119.427C196.692 119.409 196.696 119.395 196.699 119.38C196.761 119.121 196.815 118.866 196.861 118.618C196.866 118.598 196.87 118.576 196.875 118.556C196.919 118.312 196.957 118.077 196.988 117.846C196.991 117.823 196.994 117.799 196.998 117.776C197.012 117.663 197.024 117.55 197.037 117.438C197.048 117.328 197.057 117.22 197.065 117.112C197.057 117.22 197.048 117.328 197.037 117.438C197.048 117.328 197.057 117.22 197.065 117.112C197.067 117.087 197.068 117.063 197.07 117.04C197.084 116.825 197.092 116.616 197.093 116.412C197.093 116.409 197.093 116.407 197.093 116.404C197.093 116.385 197.093 116.368 197.093 116.349C197.092 116.246 197.092 116.145 197.087 116.046C197.084 115.946 197.079 115.847 197.073 115.75C197.07 115.732 197.068 115.715 197.067 115.699C197.052 115.508 197.032 115.323 197.005 115.142C197.004 115.136 197.002 115.13 197.002 115.124C196.999 115.114 196.998 115.103 196.996 115.092C196.98 114.996 196.965 114.902 196.946 114.81C196.927 114.716 196.905 114.625 196.883 114.533V114.53C196.696 113.79 196.392 113.138 195.974 112.559C195.439 111.817 194.719 111.196 193.828 110.664C193.765 110.626 193.7 110.588 193.634 110.552C193.534 110.494 193.429 110.438 193.324 110.383C193.303 110.372 193.283 110.361 193.263 110.35C193.14 110.285 193.016 110.226 192.887 110.165C192.847 110.146 192.806 110.125 192.764 110.106C192.729 110.091 192.693 110.073 192.655 110.056C192.494 109.982 192.326 109.912 192.156 109.841C192.106 109.822 192.059 109.802 192.009 109.782C191.925 109.75 191.842 109.717 191.758 109.684C191.673 109.653 191.588 109.622 191.502 109.59C191.442 109.568 191.381 109.546 191.32 109.526C191.152 109.466 190.979 109.408 190.805 109.352C190.734 109.33 190.664 109.306 190.592 109.284C190.419 109.231 190.245 109.177 190.067 109.126C189.986 109.104 189.906 109.079 189.824 109.057C189.738 109.033 189.648 109.008 189.559 108.984C189.471 108.959 189.38 108.936 189.291 108.912C189.201 108.889 189.11 108.865 189.019 108.842C188.84 108.798 188.66 108.752 188.478 108.708C188.376 108.685 188.274 108.661 188.17 108.638C187.991 108.597 187.809 108.556 187.626 108.515C187.607 108.51 187.586 108.507 187.566 108.503C187.472 108.482 187.378 108.462 187.282 108.443C187.103 108.405 186.922 108.368 186.739 108.33C186.612 108.305 186.482 108.28 186.353 108.255C186.174 108.219 185.995 108.184 185.813 108.151C185.744 108.139 185.673 108.124 185.603 108.112C185.532 108.099 185.46 108.087 185.389 108.073C185.214 108.041 185.036 108.008 184.856 107.977C184.746 107.956 184.634 107.938 184.523 107.919C184.468 107.911 184.413 107.9 184.36 107.892C184.193 107.864 184.032 107.836 183.862 107.806C183.655 107.773 183.443 107.737 183.231 107.702C183.101 107.682 182.973 107.66 182.841 107.639C182.491 107.583 182.138 107.526 181.778 107.472C170.809 105.761 176.104 87.2132 167.658 87.2132C166.976 87.2132 166.203 87.334 165.326 87.5961C161.87 88.6224 159.277 89.1827 157.088 89.1827C151.84 89.1827 148.932 85.9593 142.14 78.2241C142.128 78.21 142.117 78.1959 142.104 78.1833C141.855 77.9008 141.61 77.6403 141.367 77.3908C141.313 77.3359 141.26 77.2794 141.208 77.226C140.963 76.9796 140.722 76.749 140.483 76.534C140.438 76.4932 140.391 76.4523 140.343 76.4115C140.237 76.3174 140.128 76.2248 140.023 76.1369C139.917 76.0475 139.811 75.9627 139.706 75.8796C139.669 75.8497 139.629 75.8168 139.59 75.787C139.479 75.7006 139.366 75.619 139.256 75.539C139.145 75.4605 139.035 75.3852 138.926 75.3115C138.864 75.2707 138.802 75.2314 138.741 75.1922C138.636 75.1247 138.529 75.0588 138.424 74.996C138.319 74.9333 138.214 74.8736 138.112 74.8187C138.063 74.7936 138.018 74.7732 137.971 74.7481C137.884 74.7041 137.801 74.6618 137.716 74.6225C137.633 74.5833 137.549 74.5456 137.465 74.5095C137.401 74.4813 137.334 74.4515 137.269 74.4264C137.13 74.3699 136.993 74.3212 136.856 74.2757C136.811 74.2616 136.765 74.2475 136.721 74.2333C136.684 74.2223 136.646 74.2114 136.61 74.2019C136.572 74.191 136.536 74.1815 136.5 74.1721C136.433 74.1533 136.365 74.1376 136.296 74.1203C136.23 74.1062 136.164 74.0921 136.097 74.0795C136.003 74.0607 135.907 74.0434 135.813 74.0293C135.684 74.0121 135.555 73.9964 135.43 73.9885C135.348 73.9822 135.267 73.976 135.185 73.9744C135.152 73.9728 135.121 73.9712 135.089 73.9712C135.063 73.9712 135.036 73.9712 135.009 73.9712C135.008 73.9712 135.006 73.9712 135.005 73.9712C135.003 73.9712 135.002 73.9712 135 73.9712C134.958 73.9712 134.915 73.9713 134.874 73.9728C134.83 73.9744 134.788 73.976 134.744 73.9775C134.808 73.7233 134.87 73.4659 134.943 73.2133C134.995 73.0752 135.234 72.4553 135.661 71.6392C138.393 71.8574 141.156 73.5444 143.904 76.6752C150.381 84.0494 152.843 86.8522 157.2 86.8522C159.138 86.8522 161.449 86.2983 164.657 85.3457C165.724 85.0271 166.727 84.8686 167.659 84.8686C168.927 84.8686 170.068 85.1636 171.066 85.749C174.122 87.5427 175.014 91.521 175.879 95.3689C177.152 101.047 178.21 104.538 182.139 105.151C190.009 106.378 195.773 107.57 198.272 111.773C199.347 113.582 199.687 115.728 199.295 118.363C198.405 119.061 197.462 119.692 196.47 120.254ZM196.688 119.427C196.624 119.693 196.552 119.97 196.47 120.252C196.552 119.97 196.624 119.693 196.688 119.427ZM196.861 118.618C196.815 118.866 196.761 119.121 196.699 119.38C196.761 119.121 196.815 118.866 196.861 118.618ZM197.093 116.412C197.092 116.616 197.084 116.825 197.07 117.04C197.084 116.825 197.092 116.616 197.093 116.412Z" fill="#6D184E"/>
<path d="M197.07 117.04C197.084 116.825 197.091 116.615 197.093 116.412C197.091 116.615 197.084 116.825 197.07 117.04Z" fill="#6D184E"/>
<path d="M197.067 115.699C197.052 115.509 197.033 115.323 197.005 115.142C197.033 115.323 197.052 115.509 197.067 115.699ZM197.005 115.142C197.004 115.136 197.002 115.13 197.002 115.124C197.002 115.13 197.004 115.136 197.005 115.142Z" fill="#6D184E"/>
<path d="M196.998 117.775C197.011 117.662 197.025 117.55 197.036 117.438C197.025 117.55 197.011 117.662 196.998 117.775ZM197.036 117.438C197.047 117.329 197.058 117.219 197.066 117.111C197.058 117.219 197.047 117.329 197.036 117.438Z" fill="#6D184E"/>
<path d="M196.996 115.091C196.981 114.997 196.964 114.903 196.945 114.809C196.964 114.903 196.981 114.997 196.996 115.091ZM196.945 114.809C196.927 114.716 196.906 114.625 196.883 114.534C196.906 114.625 196.927 114.716 196.945 114.809Z" fill="#6D184E"/>
<path d="M192.656 110.056C192.494 109.983 192.325 109.911 192.155 109.842C192.325 109.911 192.494 109.983 192.656 110.056Z" fill="#6D184E"/>
<path d="M193.828 110.663C193.764 110.625 193.701 110.588 193.636 110.552C193.701 110.588 193.764 110.625 193.828 110.663ZM193.636 110.552C193.534 110.494 193.43 110.437 193.325 110.382C193.43 110.437 193.534 110.494 193.636 110.552Z" fill="#6D184E"/>
<path d="M193.263 110.349C193.141 110.286 193.017 110.224 192.887 110.165C193.017 110.224 193.141 110.285 193.263 110.349ZM192.887 110.165C192.848 110.145 192.807 110.125 192.764 110.107C192.807 110.125 192.848 110.145 192.887 110.165Z" fill="#6D184E"/>
<path d="M196.471 120.252C196.552 119.968 196.623 119.694 196.688 119.425C196.623 119.694 196.552 119.968 196.471 120.252Z" fill="#6D184E"/>
<path d="M196.875 118.555C196.92 118.312 196.957 118.078 196.988 117.847C196.957 118.076 196.92 118.312 196.875 118.555Z" fill="#6D184E"/>
<path d="M196.698 119.381C196.761 119.12 196.815 118.867 196.862 118.618C196.815 118.867 196.761 119.12 196.698 119.381Z" fill="#6D184E"/>
<path d="M137.467 74.5088C137.4 74.4808 137.334 74.4514 137.27 74.425C137.334 74.4514 137.4 74.4808 137.467 74.5088Z" fill="#6D184E"/>
<path d="M136.099 74.0781C136.002 74.0595 135.907 74.0424 135.814 74.0284C135.907 74.0424 136.002 74.0595 136.099 74.0781Z" fill="#6D184E"/>
<path d="M136.722 74.2329C136.684 74.222 136.647 74.2112 136.61 74.2003C136.647 74.2112 136.684 74.222 136.722 74.2329ZM136.61 74.2003C136.574 74.191 136.537 74.1801 136.5 74.1708C136.537 74.1801 136.574 74.191 136.61 74.2003Z" fill="#6D184E"/>
<path d="M138.925 75.3113C138.865 75.271 138.803 75.2308 138.743 75.1921C138.803 75.2308 138.865 75.271 138.925 75.3113Z" fill="#6D184E"/>
<path d="M138.112 74.8169C138.064 74.7921 138.018 74.7719 137.971 74.7471C138.018 74.7719 138.064 74.7921 138.112 74.8169Z" fill="#6D184E"/>
<path d="M192.009 109.783C191.927 109.749 191.842 109.716 191.757 109.684C191.842 109.716 191.927 109.749 192.009 109.783ZM191.757 109.684C191.673 109.653 191.588 109.621 191.501 109.59C191.588 109.621 191.673 109.653 191.757 109.684Z" fill="#6D184E"/>
<path d="M139.707 75.8789C139.669 75.8496 139.63 75.8156 139.591 75.7863C139.63 75.8156 139.669 75.8496 139.707 75.8789Z" fill="#6D184E"/>
<path d="M196.883 114.531C196.697 113.789 196.392 113.138 195.975 112.56C196.392 113.138 196.697 113.789 196.883 114.531ZM195.975 112.56C195.439 111.816 194.72 111.195 193.829 110.663C194.72 111.195 195.439 111.816 195.975 112.56Z" fill="#6D184E"/>
<path d="M141.367 77.3896C141.313 77.3344 141.261 77.2791 141.208 77.2254C141.261 77.2791 141.313 77.3344 141.367 77.3896Z" fill="#6D184E"/>
<path d="M135.431 73.9873C135.349 73.9811 135.266 73.9749 135.185 73.9733C135.266 73.9749 135.349 73.9811 135.431 73.9873Z" fill="#6D184E"/>
<path d="M197.093 116.349C197.091 116.246 197.091 116.145 197.087 116.045C197.091 116.145 197.091 116.246 197.093 116.349ZM197.087 116.045C197.084 115.946 197.077 115.847 197.071 115.75C197.079 115.847 197.084 115.946 197.087 116.045Z" fill="#6D184E"/>
<path d="M188.171 108.638C187.99 108.596 187.81 108.556 187.625 108.514C187.81 108.556 187.99 108.596 188.171 108.638Z" fill="#6D184E"/>
<path d="M189.019 108.842C188.839 108.797 188.66 108.752 188.477 108.708C188.66 108.752 188.839 108.797 189.019 108.842Z" fill="#6D184E"/>
<path d="M140.484 76.5327C140.438 76.4911 140.392 76.4511 140.344 76.411C140.392 76.4511 140.438 76.4911 140.484 76.5327Z" fill="#6D184E"/>
<path d="M190.592 109.282C190.421 109.23 190.246 109.177 190.068 109.124C190.246 109.177 190.421 109.23 190.592 109.282Z" fill="#6D184E"/>
<path d="M191.321 109.524C191.153 109.464 190.981 109.406 190.806 109.351C190.981 109.406 191.153 109.464 191.321 109.524Z" fill="#6D184E"/>
<path d="M189.825 109.057C189.738 109.033 189.649 109.007 189.559 108.983C189.649 109.007 189.738 109.033 189.825 109.057ZM189.559 108.983C189.471 108.959 189.381 108.935 189.291 108.913C189.381 108.935 189.471 108.959 189.559 108.983Z" fill="#6D184E"/>
<path d="M187.284 108.441C187.104 108.404 186.924 108.366 186.74 108.329C186.924 108.366 187.104 108.404 187.284 108.441Z" fill="#6D184E"/>
<path d="M184.36 107.891C184.194 107.863 184.032 107.835 183.863 107.806C184.032 107.835 184.194 107.863 184.36 107.891Z" fill="#6D184E"/>
<path d="M183.232 107.703C183.1 107.681 182.972 107.66 182.841 107.638C182.972 107.66 183.1 107.681 183.232 107.703Z" fill="#6D184E"/>
<path d="M185.39 108.073C185.213 108.042 185.036 108.008 184.855 107.977C185.036 108.008 185.213 108.042 185.39 108.073Z" fill="#6D184E"/>
<path d="M186.353 108.254C186.174 108.22 185.995 108.184 185.813 108.15C185.995 108.184 186.174 108.22 186.353 108.254Z" fill="#6D184E"/>
<path d="M163.396 223.13C163.031 223.13 162.648 223.108 162.246 223.064C160.968 222.925 159.8 222.682 158.734 222.331C162.624 222.021 166.967 219.701 166.785 210.813C166.47 195.521 157.473 172.344 184.682 172.344C185.804 172.344 186.989 172.383 188.238 172.464C188.309 172.468 188.524 172.48 188.561 172.483L188.559 172.485C198.304 173.1 202.311 175.709 206.79 175.709C208.649 175.708 210.589 175.259 213.054 174.03C212.297 174.593 211.519 175.168 210.716 175.756C205.26 179.752 201.904 180.996 198.768 180.996C196.74 180.996 194.805 180.475 192.456 179.845C189.254 178.984 185.269 177.914 179.648 177.732C179.534 177.729 179.421 177.727 179.307 177.727C177.108 177.727 175.265 178.453 173.824 179.883C169.877 183.796 170.081 192.179 170.295 201.053C170.495 209.278 170.721 218.6 167.196 221.84C166.253 222.705 165.004 223.13 163.396 223.13ZM230.26 161.935C236.069 157.669 240.451 154.84 244.133 154.37C243.59 157.599 242.89 159.958 242.156 160.666C240.742 159.938 239.317 159.599 237.835 159.599C235.499 159.599 233.025 160.443 230.26 161.935Z" fill="#D32B9A"/>
<path d="M163.026 225.232C157.349 225.232 152.818 221.545 152.818 221.545C152.818 221.545 155.062 222.37 157.754 222.37C158.075 222.37 158.404 222.358 158.734 222.331C159.8 222.682 160.97 222.925 162.247 223.064C162.649 223.108 163.033 223.129 163.397 223.129C165.005 223.129 166.255 222.704 167.196 221.84C170.721 218.6 170.495 209.278 170.296 201.052C170.081 192.178 169.878 183.796 173.825 179.883C175.266 178.453 177.109 177.727 179.307 177.727C179.422 177.727 179.535 177.729 179.649 177.732C185.27 177.914 189.256 178.984 192.457 179.844C194.807 180.475 196.742 180.995 198.768 180.995C201.905 180.995 205.262 179.752 210.717 175.756C211.519 175.168 212.297 174.593 213.055 174.03C214.854 173.134 216.929 171.823 219.456 169.971C223.554 166.97 227.116 164.242 230.261 161.935C233.026 160.443 235.499 159.598 237.836 159.598C239.318 159.598 240.743 159.938 242.157 160.666C242.891 159.958 243.592 157.598 244.134 154.37C244.494 154.323 244.847 154.3 245.195 154.3C245.644 154.3 246.082 154.339 246.513 154.419C245.768 159.042 244.475 163.082 242.237 163.081C241.891 163.081 241.523 162.985 241.132 162.779C240.083 162.231 238.997 161.973 237.843 161.973C232.02 161.973 224.516 168.556 212.105 177.65C206.132 182.025 202.286 183.363 198.785 183.363C193.711 183.363 189.363 180.551 180.322 180.114C180.322 180.114 179.878 179.879 179.22 179.879C177.73 179.879 175.143 181.09 174.113 188.991C172.629 200.381 175.704 220.859 167.965 224.215C166.277 224.946 164.608 225.232 163.026 225.232Z" fill="#6D184E"/>
<path d="M103.968 69.1232C102.421 69.3786 101.375 70.8396 101.631 72.3863L103.211 81.9296C103.467 83.4763 104.928 84.5217 106.474 84.2663C108.023 84.0109 109.068 82.5483 108.811 81.0016L107.233 71.4598C106.977 69.9116 105.515 68.8662 103.968 69.1232Z" fill="#0DF4FF"/>
<path d="M104.432 70.1278C104.336 70.1278 104.238 70.1358 104.138 70.1517C103.666 70.2298 103.252 70.4879 102.973 70.8782C102.694 71.267 102.582 71.7434 102.661 72.215L104.241 81.7584C104.402 82.735 105.327 83.3946 106.305 83.2369C106.778 83.1588 107.193 82.9007 107.471 82.5104C107.75 82.12 107.86 81.6453 107.782 81.1721L106.203 71.6287C106.058 70.7524 105.295 70.1278 104.432 70.1278ZM106.009 85.3479C104.145 85.3479 102.496 83.9968 102.181 82.0993L100.601 72.5559C100.432 71.533 100.672 70.5054 101.275 69.6626C101.879 68.8198 102.775 68.2622 103.798 68.0917C105.912 67.7428 107.913 69.1767 108.263 71.2877L109.842 80.8311C110.011 81.8556 109.772 82.8816 109.168 83.726C108.564 84.5688 107.669 85.1249 106.646 85.2953C106.433 85.3304 106.219 85.3479 106.009 85.3479Z" fill="#6D184E"/>
<path d="M138.928 51.3986C137.843 52.5312 137.882 54.3288 139.014 55.4122L146.002 62.101C147.135 63.1843 148.931 63.1452 150.016 62.0125C151.099 60.8799 151.06 59.0822 149.928 57.9989L142.94 51.3118C141.809 50.2268 140.011 50.2659 138.928 51.3986Z" fill="#0DF4FF"/>
<path d="M139.681 52.1208C138.997 52.8353 139.021 53.9728 139.737 54.6583L146.724 61.3466C147.439 62.0304 148.578 62.0049 149.261 61.2903C149.594 60.9441 149.771 60.4905 149.759 60.0096C149.749 59.5321 149.551 59.0853 149.207 58.7528L142.219 52.0645C141.872 51.7337 141.407 51.5478 140.938 51.5666C140.459 51.5768 140.012 51.7729 139.681 52.1208ZM147.964 63.9302C146.999 63.9302 146.032 63.5738 145.281 62.8541L138.293 56.1658C136.746 54.6856 136.693 52.2231 138.172 50.6764C138.89 49.9278 139.855 49.5031 140.892 49.4793C141.922 49.4707 142.913 49.8391 143.663 50.557L150.65 57.2453C151.4 57.9615 151.825 58.9285 151.847 59.9653C151.869 61.0021 151.487 61.9861 150.769 62.7347C150.008 63.5294 148.987 63.9302 147.964 63.9302Z" fill="#6D184E"/>
<path d="M185.642 87.9629C184.233 88.6492 183.646 90.3473 184.332 91.7566L188.564 100.455C189.249 101.865 190.947 102.451 192.358 101.767C193.769 101.08 194.354 99.3808 193.669 97.9715L189.437 89.2728C188.751 87.8635 187.053 87.2766 185.642 87.9629Z" fill="#0DF4FF"/>
<path d="M185.643 87.9621H185.647H185.643ZM186.884 88.7192C186.615 88.7192 186.348 88.7806 186.099 88.9004V88.902C185.667 89.1108 185.345 89.4764 185.187 89.9279C185.031 90.3825 185.061 90.8693 185.27 91.2993L189.502 99.9981C189.935 100.889 191.012 101.261 191.901 100.827C192.792 100.394 193.164 99.3177 192.73 98.427L188.498 89.7298C188.289 89.2982 187.923 88.9757 187.47 88.819C187.278 88.7515 187.08 88.7192 186.884 88.7192ZM191.122 103.094C189.682 103.094 188.297 102.291 187.625 100.912L183.393 92.2131C182.94 91.2809 182.877 90.2274 183.215 89.2475C183.554 88.2677 184.254 87.4783 185.187 87.0237C186.119 86.5706 187.171 86.5061 188.152 86.8455C189.132 87.1834 189.921 87.8837 190.375 88.8175L194.607 97.5147C195.544 99.4391 194.739 101.767 192.815 102.704C192.27 102.97 191.692 103.094 191.122 103.094Z" fill="#6D184E"/>
<path d="M126.305 119.696C124.744 119.555 123.364 120.705 123.223 122.267L122.349 131.9C122.208 133.461 123.358 134.843 124.919 134.984C126.481 135.126 127.863 133.975 128.003 132.413L128.876 122.78C129.019 121.219 127.868 119.838 126.305 119.696Z" fill="#0DF4FF"/>
<path d="M126.047 120.728C125.627 120.728 125.226 120.873 124.901 121.144C124.533 121.452 124.306 121.884 124.262 122.36L123.389 131.995C123.345 132.472 123.49 132.939 123.798 133.306C124.104 133.674 124.536 133.901 125.015 133.944C125.998 134.04 126.875 133.304 126.965 132.318L127.838 122.686C127.881 122.208 127.736 121.743 127.429 121.373C127.121 121.005 126.689 120.778 126.212 120.736C126.157 120.73 126.102 120.728 126.047 120.728ZM125.179 136.04C125.063 136.04 124.944 136.035 124.825 136.023C123.793 135.93 122.858 135.44 122.195 134.644C121.53 133.846 121.217 132.839 121.31 131.807L122.184 122.173C122.376 120.041 124.27 118.467 126.401 118.657C127.434 118.752 128.368 119.24 129.033 120.037C129.697 120.834 130.011 121.841 129.917 122.875L129.043 132.507C128.861 134.521 127.163 136.04 125.179 136.04Z" fill="#6D184E"/>
<path d="M108.927 106.531C108.091 105.205 106.34 104.805 105.013 105.64L96.8229 110.787C95.4953 111.622 95.0964 113.373 95.931 114.701C96.7641 116.028 98.5179 116.428 99.8441 115.594L108.034 110.447C109.361 109.611 109.762 107.859 108.927 106.531Z" fill="#FFD00D"/>
<path d="M106.52 106.249C106.193 106.249 105.864 106.337 105.567 106.522L97.3778 111.67C96.9727 111.924 96.6898 112.322 96.5841 112.791C96.477 113.259 96.5594 113.74 96.8148 114.146C97.3407 114.982 98.4516 115.236 99.2892 114.71L107.479 109.562C108.316 109.035 108.569 107.924 108.043 107.087C107.702 106.546 107.117 106.249 106.52 106.249ZM98.3403 117.071C97.0482 117.071 95.7836 116.428 95.0462 115.256C94.4942 114.378 94.3184 113.339 94.5477 112.327C94.7798 111.315 95.3895 110.454 96.2683 109.903L104.458 104.756C106.27 103.617 108.67 104.165 109.81 105.976C110.948 107.788 110.402 110.19 108.589 111.328L100.4 116.478C99.7602 116.88 99.0461 117.071 98.3403 117.071Z" fill="#6D184E"/>
<path d="M181.99 158.897C181.156 157.57 179.404 157.171 178.076 158.005L169.886 163.152C168.56 163.987 168.159 165.738 168.994 167.066C169.828 168.394 171.58 168.793 172.908 167.96L181.097 162.811C182.425 161.977 182.824 160.225 181.99 158.897Z" fill="#0DF4FF"/>
<path d="M179.582 158.612C179.248 158.612 178.921 158.707 178.631 158.889L170.441 164.036C170.036 164.291 169.754 164.689 169.646 165.157C169.54 165.625 169.621 166.105 169.877 166.51C170.132 166.916 170.531 167.2 170.998 167.306C171.464 167.413 171.944 167.331 172.352 167.076L180.541 161.929C181.379 161.402 181.633 160.291 181.107 159.453C180.85 159.047 180.453 158.765 179.985 158.659C179.851 158.628 179.717 158.612 179.582 158.612ZM171.404 169.439C171.114 169.439 170.824 169.408 170.534 169.341C169.523 169.111 168.661 168.5 168.11 167.622C167.558 166.745 167.381 165.705 167.611 164.692C167.842 163.681 168.453 162.82 169.331 162.269L177.52 157.122C178.398 156.569 179.438 156.393 180.449 156.624C181.461 156.854 182.321 157.465 182.874 158.343C184.012 160.155 183.464 162.556 181.652 163.696L173.462 168.843C172.837 169.237 172.126 169.439 171.404 169.439Z" fill="#6D184E"/>
<path d="M194.765 131.203C193.306 131.777 192.589 133.425 193.164 134.884L196.708 143.885C197.283 145.344 198.931 146.059 200.39 145.486C201.849 144.911 202.566 143.263 201.991 141.804L198.447 132.804C197.872 131.346 196.224 130.629 194.765 131.203Z" fill="#FFD00D"/>
<path d="M195.148 132.174C194.703 132.35 194.351 132.689 194.159 133.129C193.968 133.568 193.96 134.055 194.136 134.502L197.68 143.502C198.043 144.423 199.088 144.876 200.008 144.514C200.454 144.338 200.806 143.999 200.996 143.56C201.188 143.12 201.197 142.632 201.021 142.186L197.476 133.186C197.3 132.739 196.961 132.388 196.522 132.198C196.082 132.006 195.594 131.997 195.148 132.174ZM199.355 146.726C197.807 146.726 196.34 145.793 195.738 144.267L192.194 135.267C191.409 133.275 192.391 131.016 194.383 130.231C195.347 129.851 196.403 129.87 197.354 130.283C198.305 130.698 199.039 131.457 199.419 132.421L202.963 141.421C203.343 142.385 203.324 143.442 202.911 144.392C202.497 145.344 201.739 146.077 200.774 146.457C200.309 146.639 199.827 146.726 199.355 146.726Z" fill="#6D184E"/>
<path d="M168.696 64.4333C168.261 65.9409 169.129 67.5136 170.635 67.9483L179.93 70.633C181.434 71.0694 183.008 70.2016 183.443 68.694C183.878 67.188 183.01 65.6136 181.504 65.1789L172.211 62.4942C170.705 62.0595 169.131 62.9273 168.696 64.4333Z" fill="#FFD00D"/>
<path d="M169.698 64.7252C169.423 65.6753 169.973 66.6728 170.925 66.9475L180.217 69.6308C181.167 69.9072 182.165 69.3561 182.441 68.4061C182.572 67.9449 182.52 67.4593 182.288 67.0407C182.055 66.6204 181.674 66.3163 181.215 66.1822L171.92 63.4988C170.97 63.2241 169.973 63.7735 169.698 64.7252ZM180.714 71.7893C180.358 71.7893 179.997 71.7402 179.639 71.6372L170.346 68.9522C168.289 68.3587 167.098 66.2018 167.692 64.1464C168.287 62.0893 170.444 60.9005 172.499 61.4924L181.794 64.1774C182.79 64.4652 183.614 65.1226 184.116 66.0318C184.616 66.9393 184.734 67.9875 184.446 68.9849C183.955 70.6839 182.399 71.7893 180.714 71.7893Z" fill="#6D184E"/>
<path d="M203.678 111.785C203.243 113.293 204.111 114.866 205.617 115.301L214.91 117.985C216.416 118.42 217.99 117.552 218.425 116.046C218.86 114.54 217.992 112.967 216.486 112.53L207.194 109.846C205.686 109.411 204.113 110.279 203.678 111.785Z" fill="#0DF4FF"/>
<path d="M204.682 112.074C204.407 113.025 204.956 114.023 205.907 114.298L215.2 116.982C216.151 117.259 217.148 116.706 217.422 115.755C217.697 114.806 217.148 113.808 216.197 113.533L206.904 110.849C205.954 110.574 204.956 111.124 204.682 112.074ZM215.696 119.14C215.34 119.14 214.979 119.091 214.62 118.989L205.327 116.303C203.27 115.709 202.082 113.551 202.675 111.496C203.27 109.439 205.427 108.252 207.482 108.842L216.775 111.527C218.832 112.122 220.022 114.28 219.429 116.335C218.938 118.033 217.382 119.14 215.696 119.14Z" fill="#6D184E"/>
<path d="M221.98 158.542C223.044 159.693 224.839 159.763 225.992 158.699L233.093 152.132C234.245 151.067 234.314 149.272 233.25 148.119C232.185 146.968 230.389 146.899 229.238 147.963L222.136 154.531C220.987 155.595 220.916 157.391 221.98 158.542Z" fill="#FFD52B"/>
<path d="M231.164 148.252C230.712 148.252 230.282 148.419 229.948 148.729L222.846 155.296C222.119 155.968 222.075 157.106 222.748 157.833C223.419 158.56 224.557 158.605 225.284 157.933L232.385 151.366C233.112 150.693 233.156 149.555 232.485 148.829C232.159 148.476 231.716 148.271 231.237 148.254C231.212 148.252 231.189 148.252 231.164 148.252ZM224.066 160.495C223.02 160.495 221.979 160.077 221.215 159.25C219.762 157.68 219.858 155.218 221.429 153.764L228.53 147.196C229.292 146.492 230.281 146.126 231.317 146.168C232.355 146.209 233.313 146.649 234.017 147.411C235.47 148.984 235.373 151.444 233.803 152.898L226.701 159.465C225.955 160.154 225.01 160.495 224.066 160.495Z" fill="#6D184E"/>
<path d="M202.95 91.6726C203.173 93.2244 204.611 94.3036 206.163 94.0807L215.739 92.7099C217.289 92.487 218.368 91.0475 218.145 89.4973C217.922 87.9439 216.484 86.8663 214.932 87.0892L205.357 88.46C203.805 88.6829 202.727 90.1207 202.95 91.6726Z" fill="#FFD52B"/>
<path d="M215.339 88.1033C215.253 88.1033 215.167 88.11 215.08 88.1235L205.505 89.4948C204.524 89.6345 203.843 90.5465 203.983 91.5258C204.052 92.0003 204.299 92.4193 204.683 92.707C205.066 92.9947 205.539 93.1159 206.014 93.0469L215.59 91.6755C216.569 91.5359 217.252 90.6239 217.112 89.6446C217.043 89.1701 216.796 88.7511 216.411 88.4617C216.098 88.2278 215.724 88.1033 215.339 88.1033ZM205.751 95.1536C204.918 95.1536 204.109 94.886 203.431 94.3779C202.601 93.7553 202.063 92.8483 201.916 91.8202C201.613 89.7035 203.089 87.7314 205.209 87.4268L214.784 86.0555C215.81 85.9108 216.833 86.1699 217.663 86.7925C218.492 87.4151 219.031 88.322 219.177 89.3484C219.482 91.4669 218.004 93.439 215.886 93.7418L206.31 95.1132C206.123 95.1401 205.936 95.1536 205.751 95.1536Z" fill="#6D184E"/>
<path d="M140.769 146.002C141.859 147.129 143.657 147.159 144.784 146.07L151.736 139.344C152.863 138.254 152.894 136.458 151.803 135.33C150.714 134.204 148.916 134.173 147.79 135.264L140.836 141.988C139.711 143.078 139.679 144.875 140.769 146.002Z" fill="#FFD52B"/>
<path d="M141.519 145.278C142.207 145.989 143.346 146.007 144.057 145.319L151.01 138.595C151.721 137.907 151.741 136.768 151.054 136.057C150.719 135.712 150.272 135.518 149.792 135.509C149.308 135.488 148.859 135.68 148.515 136.014L141.562 142.738C140.849 143.428 140.83 144.565 141.519 145.278ZM142.811 147.912C142.789 147.912 142.767 147.911 142.744 147.911C141.708 147.894 140.739 147.474 140.018 146.728C138.53 145.189 138.571 142.726 140.111 141.238L147.063 134.513C147.809 133.793 148.784 133.388 149.828 133.423C150.864 133.44 151.833 133.86 152.554 134.606C154.042 136.146 153.999 138.607 152.462 140.095L145.508 146.819C144.779 147.525 143.824 147.912 142.811 147.912Z" fill="#6D184E"/>
<path d="M117.516 56.809C118.801 55.9096 119.113 54.1388 118.213 52.856L112.666 44.9325C111.766 43.6479 109.997 43.3359 108.712 44.2353C107.428 45.1347 107.116 46.9038 108.016 48.1883L113.563 56.1118C114.463 57.3964 116.232 57.7084 117.516 56.809Z" fill="#FFD52B"/>
<path d="M110.337 44.7648C109.972 44.7648 109.617 44.8749 109.312 45.0898C108.919 45.3642 108.656 45.7767 108.573 46.2486C108.49 46.7205 108.596 47.1976 108.87 47.5891L114.418 55.5134C114.693 55.9049 115.105 56.1671 115.577 56.2509C116.05 56.3348 116.526 56.2282 116.918 55.9538H116.919C117.311 55.6794 117.573 55.267 117.657 54.7951C117.74 54.3232 117.634 53.846 117.36 53.4546L111.811 45.5303C111.536 45.137 111.124 44.8749 110.653 44.7927C110.547 44.7735 110.442 44.7648 110.337 44.7648ZM115.897 58.3657C115.671 58.3657 115.442 58.3483 115.215 58.3063C114.194 58.1263 113.304 57.56 112.708 56.7106L107.161 48.7863C106.566 47.9369 106.338 46.9075 106.517 45.8851C106.697 44.8644 107.264 43.973 108.114 43.3805C108.963 42.7846 109.994 42.5556 111.015 42.7356C112.036 42.9174 112.926 43.4837 113.521 44.3331L119.069 52.2573C119.664 53.1068 119.892 54.1362 119.712 55.1586C119.533 56.1793 118.966 57.0689 118.115 57.6631C117.455 58.1245 116.686 58.3657 115.897 58.3657Z" fill="#6D184E"/>
<path d="M151.273 279.705C100.401 279.705 59.1619 274.89 59.1619 268.95C59.1619 263.011 100.401 258.195 151.273 258.195C202.144 258.195 243.383 263.011 243.383 268.95C243.383 274.89 202.144 279.705 151.273 279.705Z" fill="#F2A40C"/>
</svg>
